<svg width="1105" height="604" viewBox="0 0 1105 604" fill="none" xmlns="http://www.w3.org/2000/svg">
<rect x="0.5" y="0.5" width="1104" height="603" stroke="black"/>
<g filter="url(#filter0_d_131_36)">
<path d="M180.216 302.8H208.644L285.096 444.112V302.8H310.212V496H286.752L205.332 346.684V496H180.216V302.8ZM367.827 498.76C357.523 498.76 349.059 495.08 342.435 487.72C335.811 480.36 332.499 470.976 332.499 459.568C332.499 442.64 339.583 430.496 353.751 423.136C367.919 415.592 383.743 411.636 401.223 411.268C401.223 399.492 399.475 391.304 395.979 386.704C392.483 382.104 386.595 379.804 378.315 379.804C367.643 379.804 356.787 383.944 345.747 392.224L342.711 372.076C354.303 362.692 367.735 358 383.007 358C397.543 358 408.307 362.232 415.299 370.696C422.291 378.976 425.787 392.408 425.787 410.992V450.46C425.787 460.948 426.523 468.4 427.995 472.816C429.467 477.048 432.687 479.164 437.655 479.164H440.691L437.655 498.76H432.411C423.947 498.76 417.691 497.196 413.643 494.068C409.595 490.94 406.283 485.88 403.707 478.888C399.475 484.96 394.231 489.836 387.975 493.516C381.719 497.012 375.003 498.76 367.827 498.76ZM375.279 479.164C379.695 479.164 384.295 477.508 389.079 474.196C393.863 470.7 397.911 466.192 401.223 460.672V428.38C387.055 429.116 376.291 431.876 368.931 436.66C361.571 441.26 357.891 448.436 357.891 458.188C357.891 472.172 363.687 479.164 375.279 479.164ZM461.279 360.76H480.875L483.911 383.392C489.983 374.56 495.687 368.12 501.023 364.072C506.543 360.024 512.339 358 518.411 358C520.803 358 522.919 358.276 524.759 358.828L522.275 386.152C519.883 385.6 517.123 385.324 513.995 385.324C507.923 385.324 502.219 386.888 496.883 390.016C491.547 392.96 487.683 396.456 485.291 400.504V496H461.279V360.76ZM594.341 498.76C573.733 498.76 558.093 492.32 547.421 479.44C536.749 466.376 531.413 449.632 531.413 429.208C531.413 408.048 536.749 390.936 547.421 377.872C558.093 364.624 573.917 358 594.893 358C606.117 358 616.145 360.3 624.977 364.9L621.113 386.152C612.833 381.736 604.185 379.528 595.169 379.528C582.841 379.528 573.181 383.852 566.189 392.5C559.381 400.964 555.977 412.832 555.977 428.104C555.977 443.376 559.473 455.428 566.465 464.26C573.641 473.092 583.485 477.508 595.997 477.508C605.565 477.508 614.029 475.3 621.389 470.884L624.701 492.412C621.021 494.252 616.421 495.724 610.901 496.828C605.381 498.116 599.861 498.76 594.341 498.76ZM646.992 302.8H671.004V330.124H646.992V302.8ZM646.992 360.76H671.004V496H646.992V360.76ZM737.548 498.76C721.724 498.76 708.016 495.08 696.424 487.72L699.46 463.432C711.236 472.632 723.38 477.232 735.892 477.232C742.516 477.232 747.668 475.852 751.348 473.092C755.212 470.332 757.144 466.284 757.144 460.948C757.144 456.9 756.224 453.588 754.384 451.012C752.728 448.436 749.876 445.952 745.828 443.56C741.78 441.168 735.524 438.04 727.06 434.176C717.124 429.576 709.856 424.332 705.256 418.444C700.656 412.556 698.356 404.92 698.356 395.536C698.356 384.496 702.22 375.48 709.948 368.488C717.676 361.496 728.072 358 741.136 358C754.384 358 765.976 360.944 775.912 366.832L772.876 389.188C767.908 385.876 763.216 383.484 758.8 382.012C754.384 380.356 749.14 379.528 743.068 379.528C736.628 379.528 731.568 380.908 727.888 383.668C724.208 386.428 722.368 390.292 722.368 395.26C722.368 400.228 723.932 404 727.06 406.576C730.372 409.152 736.72 412.556 746.104 416.788C759.168 422.676 768.368 428.656 773.704 434.728C779.04 440.616 781.708 448.436 781.708 458.188C781.708 470.884 777.752 480.82 769.84 487.996C761.928 495.172 751.164 498.76 737.548 498.76ZM852.185 498.76C840.041 498.76 829.553 495.724 820.721 489.652C811.889 483.396 805.081 474.932 800.297 464.26C795.697 453.588 793.397 441.628 793.397 428.38C793.397 415.132 795.697 403.172 800.297 392.5C805.081 381.828 811.889 373.456 820.721 367.384C829.553 361.128 840.041 358 852.185 358C864.145 358 874.541 361.128 883.373 367.384C892.205 373.456 898.921 381.828 903.521 392.5C908.121 403.172 910.421 415.132 910.421 428.38C910.421 441.628 908.121 453.588 903.521 464.26C898.921 474.932 892.205 483.396 883.373 489.652C874.541 495.724 864.145 498.76 852.185 498.76ZM852.185 477.508C862.857 477.508 871.137 473.184 877.025 464.536C882.913 455.888 885.857 443.836 885.857 428.38C885.857 412.924 882.913 400.964 877.025 392.5C871.137 383.852 862.857 379.528 852.185 379.528C841.145 379.528 832.681 383.852 826.793 392.5C820.905 400.964 817.961 412.924 817.961 428.38C817.961 444.02 820.905 456.164 826.793 464.812C832.681 473.276 841.145 477.508 852.185 477.508Z" fill="#6D0E0F"/>
</g>
<path fill-rule="evenodd" clip-rule="evenodd" d="M545.5 137.5C544.091 138.676 541.641 141.198 540.279 142.716C536.103 147.369 533.152 153.887 533.152 158.454C533.152 159.198 533.056 159.699 532.913 159.699C532.781 159.699 532.223 159.407 531.671 159.05C528.941 157.281 525.222 155.944 521.08 155.243C518.083 154.735 511.514 154.631 508.337 155.041C504.505 155.535 502 156.373 504 156.87C507.5 158.361 506.676 165.04 507.791 167.765C509.929 172.986 513.91 178.244 517.663 180.803C518.605 181.445 518.718 181.805 517.979 181.805C516.982 181.805 512.15 185.13 510.126 187.209C507.548 189.858 505.783 192.486 504.099 196.187C502.749 199.154 502.353 208.187 502.5 208.548C502.653 208.923 503.151 205.686 506.635 206.541C513.412 208.204 519.157 208.359 524.545 207.024C526.772 206.473 530.234 205.161 531.658 204.33C532.25 203.984 532.766 203.701 532.805 203.701C532.844 203.701 532.946 204.624 533.032 205.753C533.119 206.882 533.373 208.706 533.597 209.806C534.836 215.895 538.004 222.349 545 229.462L546 232.443L548.557 228.719C551.453 225.776 554.301 222.525 555.554 220.733C558.893 215.956 560.661 211.227 561.01 206.14C561.095 204.906 561.224 203.925 561.298 203.959C561.372 203.993 562.442 204.508 563.677 205.104C565.964 206.207 568.669 207.082 571.004 207.473C573.17 207.837 578.046 207.967 580.77 207.734C584.591 207.408 589.309 212.964 589.309 212.332C589.309 211.963 591.707 200.611 590.453 197.595C587.28 189.959 583.025 185.176 576.802 182.246C576.034 181.884 575.405 181.519 575.405 181.434C575.406 181.348 575.924 180.947 576.558 180.542C580.806 177.825 584.58 172.435 586.906 165.763C587.931 162.822 586.5 157.864 591 157.367C590.5 155.379 577.379 154.632 574.274 155.051C570.109 155.614 566.266 156.835 563.109 158.599L561.209 159.661L561.061 158.996C560.979 158.63 560.796 157.525 560.654 156.541C560.105 152.732 557.913 147.948 555.094 144.405C553.483 142.38 547 138.5 548.5 136C549 135 546.081 137.015 545.5 137.5ZM549.438 145.633C552.322 151.664 553.168 155.153 552.989 160.277C552.89 163.097 552.555 164.962 552.148 164.962C552.063 164.962 551.942 164.134 551.879 163.12C551.816 162.107 551.528 160.473 551.239 159.489L550.713 157.699L550.452 160.25C550.308 161.654 550.122 163.122 550.037 163.514C549.776 164.713 549.175 166.436 549.017 166.436C548.934 166.436 548.797 165.37 548.712 164.068C548.538 161.4 547.161 154.3 546.946 154.962C546.443 156.512 545.598 161.741 545.466 164.12L545.309 166.963L544.935 166.188C544.232 164.733 543.627 162.208 543.465 160.058C543.306 157.95 543.298 157.925 543.028 158.752C542.691 159.785 542.104 163.29 542.077 164.436L542.057 165.278L541.641 164.429C540.227 161.54 540.531 156.515 542.436 151.289C543.334 148.824 545.89 143.002 546.202 142.707C546.279 142.635 546.342 143.264 546.342 144.106C546.342 146.274 546.812 151.77 547.015 151.98C547.197 152.169 547.364 150.271 547.593 145.418C547.672 143.758 547.809 142.479 547.898 142.576C547.987 142.672 548.68 144.048 549.438 145.633ZM543.033 144.889C542.559 145.771 540.658 151.109 539.753 154.094C538.59 157.93 538.515 162.367 539.553 165.88C539.856 166.905 540.069 167.843 540.026 167.964C539.905 168.304 538.291 165.895 537.6 164.346C535.799 160.304 536.257 155.114 538.847 150.213C540.205 147.643 543.064 143.7 543.365 143.982C543.421 144.035 543.271 144.443 543.033 144.889ZM554.123 148.257C554.76 149.264 555.588 150.835 555.962 151.749C557.202 154.778 557.408 155.789 557.408 158.857C557.408 161.584 557.379 161.766 556.683 163.344C556.013 164.863 554.674 166.984 554.493 166.814C554.45 166.773 554.613 166.032 554.854 165.167C555.317 163.508 555.476 159.73 555.169 157.689C554.777 155.087 552.713 148.564 551.174 145.067L550.804 144.225L551.885 145.326C552.479 145.932 553.486 147.251 554.123 148.257ZM519.171 158.123C524.275 158.848 528.323 160.425 532.026 163.133C533.352 164.103 535.227 166.274 536.405 168.205L537.035 169.237L535.528 167.839C533.697 166.14 531.773 164.825 529.687 163.848C528.171 163.138 524.88 161.943 524.88 162.103C524.88 162.146 525.811 162.804 526.948 163.565C528.965 164.913 533.138 168.625 532.895 168.854C532.828 168.917 532.494 168.762 532.152 168.508C531.134 167.755 527.964 166.015 527.608 166.015C527.427 166.015 527.669 166.302 528.147 166.652C529.994 168.005 533.152 171.847 533.152 172.742C533.152 173.159 532.564 172.962 531.92 172.329C530.881 171.307 527.7 169.416 524.098 167.677C522.253 166.788 520.534 166.001 520.277 165.929C520.02 165.857 522.169 168.032 525.051 170.762C527.934 173.492 530.245 175.771 530.186 175.826C530.127 175.882 529.414 175.691 528.602 175.403C525.961 174.467 523.015 173.013 521.359 171.828C520.468 171.19 519.738 170.723 519.738 170.792C519.738 171.287 523.851 175.397 525.439 176.488C527.503 177.907 522.905 175.889 519.597 173.924C518.507 173.276 517.365 172.582 517.06 172.381L516.506 172.015L517.032 172.716C517.9 173.872 521.323 177.166 522.344 177.827C522.868 178.167 524.835 179.199 526.715 180.121C528.595 181.043 529.933 181.799 529.687 181.801C529.102 181.805 525.326 180.854 523.786 180.316C518.446 178.446 513.469 173.182 510.635 166.406C510.134 165.207 509.66 163.989 509.583 163.699C509.445 163.182 509.451 163.183 509.951 163.781C511.583 165.729 512.296 166.448 513.861 167.724C514.816 168.504 515.637 169.105 515.685 169.06C515.733 169.016 514.771 167.531 513.549 165.76C511.09 162.199 509.804 160.142 509.949 160.005C510.002 159.956 510.682 160.352 511.46 160.886C513.737 162.446 517.295 164.597 517.413 164.485C517.473 164.429 516.31 163.313 514.83 162.006C513.348 160.699 512.173 159.595 512.217 159.554C512.393 159.388 519.163 161.436 521.383 162.326C521.858 162.516 522.288 162.632 522.339 162.583C522.508 162.424 519.978 160.743 518.248 159.864C517.316 159.391 515.837 158.737 514.96 158.411L513.367 157.819L515.155 157.813C516.139 157.81 517.946 157.949 519.171 158.123ZM578.982 158.414C576.724 159.207 575.161 159.971 573.235 161.22C571.178 162.555 570.701 163.045 571.95 162.543C574.2 161.638 577.076 160.665 579.429 160.014L582 159.303L579.205 161.799C577.668 163.172 576.466 164.347 576.533 164.41C576.599 164.473 578.3 163.485 580.311 162.214C582.322 160.943 584.009 159.942 584.059 159.989C584.17 160.093 581.687 164.051 579.721 166.904C578.927 168.057 578.335 169.055 578.407 169.123C578.478 169.19 579.903 167.944 581.573 166.354C583.334 164.678 584.542 163.667 584.448 163.949C583.98 165.359 581.769 169.791 580.703 171.457C577.356 176.686 573.813 179.26 567.479 181.063C563.469 182.204 563.364 181.929 567.133 180.155C568.916 179.315 571.175 178.088 572.154 177.427C573.727 176.365 576.622 173.547 577.219 172.497C577.339 172.286 576.514 172.688 575.358 173.404C573.393 174.622 569.557 176.557 568.278 176.975C567.792 177.134 567.843 177.051 568.579 176.486C570.8 174.782 574.287 171.288 574.287 170.767C574.287 170.686 573.709 171.042 573.002 171.559C571.485 172.669 568.586 174.161 566.239 175.04C562.985 176.259 562.993 176.232 566.939 172.609C568.952 170.761 571.453 168.506 572.499 167.597C573.544 166.689 574.432 165.867 574.473 165.771C574.566 165.551 571.659 166.718 569.152 167.906C567.076 168.89 564.069 170.735 562.328 172.096C561.713 172.575 561.177 172.873 561.136 172.757C560.878 172.029 563.526 168.272 565.256 166.91C565.79 166.489 566.19 166.109 566.144 166.066C566 165.931 563.919 166.997 562.349 168.009C560.606 169.132 560.687 168.78 562.593 166.941C564.27 165.324 566.025 163.946 567.636 162.982C568.343 162.559 568.922 162.173 568.922 162.124C568.922 162.009 567.303 162.483 566.015 162.974C563.239 164.035 561.095 165.376 558.659 167.579C556.579 169.46 556.495 169.332 558.222 166.911C561.012 162.997 564.857 160.534 570.607 158.978C573.262 158.26 576.162 157.847 578.647 157.835L580.659 157.825L578.982 158.414ZM552.3 169.484C553.644 172.149 553.369 173.938 551.17 176.841C550.627 177.557 550.006 178.28 549.79 178.448C549.427 178.73 549.41 178.705 549.568 178.121C549.986 176.567 550.344 174.636 550.466 173.279L550.599 171.805L549.63 174.331C549.097 175.721 548.504 177.136 548.311 177.477L547.961 178.096L547.824 177.477C547.507 176.046 547.237 172.857 547.373 172.148C547.454 171.728 547.657 171.127 547.826 170.814C548.113 170.28 550.936 167.948 551.327 167.922C551.426 167.915 551.863 168.618 552.3 169.484ZM543.547 168.507C543.916 168.719 544.758 169.36 545.418 169.932L546.618 170.971L546.413 174.546L546.207 178.121L545.579 176.858C545.233 176.163 544.608 174.647 544.189 173.489L543.428 171.384L543.565 172.752C543.686 173.951 543.892 175.195 544.439 178.015L544.582 178.752L543.423 177.594C541.917 176.091 541.166 174.567 541.027 172.728C540.927 171.413 540.983 171.167 541.719 169.708C542.159 168.835 542.6 168.121 542.698 168.121C542.796 168.122 543.179 168.295 543.547 168.507ZM539.007 172.339C539.784 172.542 539.861 172.642 540.336 174.058C540.613 174.885 541.351 176.54 541.976 177.736C542.601 178.932 543.086 179.91 543.054 179.91C543.021 179.91 541.761 179.318 540.253 178.594C538.745 177.871 537.099 177.126 536.596 176.94C535.788 176.641 535.65 176.487 535.422 175.636C535.28 175.105 535.164 174.097 535.164 173.396V172.121L536.673 172.122C537.503 172.122 538.553 172.22 539.007 172.339ZM558.905 173.7C558.867 174.51 558.738 175.526 558.618 175.956C558.427 176.644 558.286 176.767 557.457 176.968C555.559 177.429 555.051 177.64 553.15 178.764C552.084 179.395 551.174 179.91 551.127 179.91C551.081 179.91 551.305 179.366 551.625 178.7C553.277 175.268 553.943 173.748 553.943 173.406C553.943 172.925 554.564 172.398 555.284 172.27C555.592 172.215 556.548 172.182 557.408 172.198L558.973 172.226L558.905 173.7ZM538.343 175.183C538.677 175.513 539.01 175.727 539.082 175.659C539.155 175.591 538.881 175.321 538.474 175.059L537.735 174.584L538.343 175.183ZM537.107 178.145C538.217 178.5 540.16 179.802 541.312 180.963L541.983 181.639L540.408 181.495C539.542 181.415 537.807 181.184 536.552 180.98C535.297 180.777 534.27 180.648 534.27 180.693C534.27 180.896 536.859 181.821 539.414 182.532C540.95 182.959 542.294 183.389 542.401 183.488C542.511 183.589 542.019 183.952 541.283 184.314C540.561 184.67 539.32 185.342 538.526 185.808C536.791 186.825 535.629 187.15 534.364 186.972C533.479 186.847 531.549 185.838 531.211 185.323C531.124 185.19 531.707 184.531 532.569 183.788L534.08 182.486L532.691 181.088C531.315 179.703 531.307 179.687 531.724 179.253C532.177 178.781 533.144 178.26 534.045 178.002C534.967 177.737 535.98 177.785 537.107 178.145ZM560.985 178.386C561.75 178.742 562.438 179.27 562.438 179.5C562.438 179.586 561.885 180.323 561.209 181.137L559.979 182.617L561.32 183.822C562.058 184.485 562.662 185.182 562.662 185.372C562.662 185.986 560.397 186.858 558.8 186.858C557.462 186.858 557.292 186.793 554.43 185.196C552.792 184.281 551.534 183.485 551.635 183.427C551.737 183.369 552.926 183.019 554.278 182.649C556.855 181.946 560.077 180.774 559.898 180.605C559.84 180.551 558.955 180.668 557.93 180.865C554.565 181.511 552.155 181.761 552.155 181.463C552.155 181.147 554.808 178.991 555.781 178.518C557.206 177.824 559.645 177.762 560.985 178.386ZM547.64 181.202C547.693 181.633 547.863 181.786 548.4 181.887C549.041 182.008 549.066 182.045 548.742 182.385C548.528 182.61 548.436 182.968 548.506 183.307C548.671 184.111 548.22 184.234 547.561 183.564L546.99 182.983L546.479 183.586C546.181 183.939 545.861 184.126 545.708 184.037C545.371 183.841 545.372 183.137 545.71 182.941C545.882 182.84 545.799 182.728 545.467 182.613C544.814 182.385 544.978 181.929 545.744 181.844C546.196 181.794 546.342 181.66 546.342 181.3C546.342 180.693 546.542 180.508 547.115 180.586C547.42 180.627 547.594 180.831 547.64 181.202ZM528.092 183.444C528.152 183.535 527.537 183.728 526.726 183.873C524.723 184.231 520.978 185.637 519.286 186.667C517.888 187.518 515.491 189.512 515.491 189.824C515.491 189.916 516.019 189.664 516.664 189.263C518.077 188.386 520.594 187.447 523.458 186.729C525.863 186.126 526.788 186.13 525.551 186.737C524.523 187.242 521.962 189.022 521.406 189.618C520.97 190.085 520.97 190.086 521.415 189.916C524.509 188.732 529.561 187.543 530.649 187.743C530.881 187.786 530.377 188.151 529.351 188.684C528.429 189.164 526.769 190.134 525.663 190.841C523.315 192.34 518.372 195.957 518.503 196.08C518.623 196.194 522.644 194.932 528.197 193.039C530.698 192.187 532.858 191.49 532.997 191.49C533.452 191.49 530.395 194.23 528.867 195.192C528.047 195.708 526.305 196.612 524.997 197.201C523.688 197.79 522.652 198.304 522.695 198.344C523.007 198.638 528.832 197.006 530.805 196.072L531.699 195.648L531.14 196.223C530.271 197.115 526.803 199.187 524.986 199.9C523.04 200.663 519.923 201.475 517.262 201.912C515.11 202.266 507.598 203.075 507.481 202.965C507.44 202.926 508.647 202.208 510.163 201.37C514.148 199.166 516.488 197.733 516.233 197.653C515.987 197.575 510.838 199.392 508.627 200.336C507.853 200.667 507.219 200.883 507.219 200.816C507.219 200.749 507.792 200.035 508.493 199.228C510.031 197.458 513.96 193.928 515.878 192.593C516.645 192.06 517.229 191.583 517.176 191.533C517.123 191.482 515.903 191.974 514.466 192.625C511.864 193.803 509.49 195.291 508.239 196.526C507.878 196.882 507.506 197.174 507.413 197.174C507.08 197.174 508.397 194.72 509.787 192.748C513.433 187.575 517.914 184.483 523.203 183.493C524.391 183.27 527.955 183.235 528.092 183.444ZM572.387 183.883C578.094 185.526 583.739 190.546 586.471 196.408L587.047 197.643L585.753 196.552C585.041 195.951 583.805 195.05 583.006 194.548C581.435 193.562 577.437 191.612 577.283 191.756C577.231 191.805 577.807 192.302 578.563 192.862C580.882 194.578 587.045 200.598 586.759 200.868C586.698 200.926 585.962 200.684 585.125 200.33C582.998 199.431 577.617 197.547 577.497 197.66C577.366 197.784 582.636 200.863 584.958 202.019C585.971 202.523 586.765 202.967 586.724 203.006C586.623 203.102 580.553 202.5 577.641 202.106C572.415 201.399 567.126 199.478 564.001 197.152C562.743 196.216 562.51 195.719 563.612 196.323C565.027 197.099 571.157 198.666 571.157 198.252C571.157 198.177 570.679 197.953 570.095 197.755C567.784 196.972 562.653 193.7 561.568 192.317C561.093 191.713 561.081 191.65 561.456 191.765C561.689 191.837 564.847 192.844 568.475 194.004C572.102 195.164 577.456 199.003 577.641 199C577.839 198.997 575.387 195.81 574.877 195.386C573.643 194.359 567.366 190.166 565.18 188.908C564.162 188.323 563.362 187.813 563.401 187.776C563.441 187.738 564.375 187.845 565.478 188.013C567.868 188.377 571.065 189.224 572.313 189.823C572.808 190.061 573.258 190.213 573.313 190.161C573.504 189.982 570.917 187.973 569.47 187.176C568.671 186.736 568.058 186.337 568.108 186.29C568.255 186.153 571.677 187.025 573.716 187.72C574.75 188.072 576.265 188.74 577.083 189.206C577.902 189.67 578.619 190.007 578.675 189.954C578.896 189.746 575.72 187.283 574.122 186.422C571.925 185.238 568.933 184.19 566.754 183.842C564.436 183.471 565.07 183.266 568.251 183.358C570.054 183.41 571.289 183.567 572.387 183.883ZM554.704 186.636C558.313 188.512 558.84 189.136 559.031 191.766L559.154 193.451L558.082 193.312C557.493 193.236 556.418 193.174 555.693 193.174C554.828 193.174 554.351 193.084 554.303 192.911C553.944 191.622 553.475 190.694 552.362 189.073C551.648 188.034 551.108 187.142 551.162 187.091C551.215 187.041 551.967 187.465 552.832 188.034C553.697 188.603 554.628 189.21 554.9 189.382C555.423 189.713 553.132 187.189 551.952 186.134C551.572 185.794 551.26 185.443 551.26 185.354C551.26 185.097 552.964 185.732 554.704 186.636ZM542.541 185.472C542.541 185.52 541.676 186.444 540.618 187.525C537.751 190.452 537.493 190.907 539.617 189.293C541.625 187.766 543.176 186.75 543.303 186.88C543.347 186.926 542.749 187.792 541.972 188.806C541.196 189.819 540.365 191.142 540.126 191.745C539.629 193 539.527 193.046 536.751 193.277L534.94 193.428V192.287C534.94 190.453 535.476 189.105 536.548 188.241C538.047 187.032 542.541 184.956 542.541 185.472ZM551.299 188.912C552.825 190.448 553.148 191.136 553.152 192.858C553.155 194.168 553.059 194.502 552.292 195.858C551.817 196.698 551.329 197.385 551.207 197.385C550.853 197.385 548.9 195.968 548.16 195.173C547.786 194.773 547.419 194.089 547.342 193.652C547.133 192.468 546.949 192.125 546.859 192.753C546.62 194.423 546.332 194.86 544.637 196.129C543.711 196.822 542.851 197.329 542.726 197.257C542.601 197.184 542.156 196.451 541.738 195.629C540.295 192.793 540.858 190.609 543.596 188.422C544.397 187.781 545.092 187.295 545.141 187.341C545.189 187.386 544.92 188.362 544.543 189.509C544.165 190.656 543.809 192.069 543.75 192.648L543.643 193.7L544.184 192.38C544.917 190.588 546.417 187.7 546.614 187.7C546.702 187.7 546.841 188.176 546.923 188.757C547.121 190.164 547.46 190.309 547.46 188.988C547.46 188.409 547.546 187.885 547.651 187.824C547.878 187.692 549.363 190.599 550.062 192.542C550.333 193.295 550.562 193.719 550.572 193.484C550.587 193.12 549.497 188.606 549.104 187.405C548.98 187.025 549.006 187.027 549.621 187.439C549.977 187.678 550.732 188.341 551.299 188.912ZM539.753 196.806C539.822 197.066 539.72 197.702 539.527 198.218C539.009 199.6 538.519 202.723 538.519 204.648C538.519 207.539 539.566 211.842 541.849 218.328C542.215 219.367 542.477 220.253 542.431 220.296C542.386 220.339 541.834 219.725 541.206 218.932C539.514 216.796 537.972 213.68 537.157 210.753C536.542 208.54 536.453 207.875 536.444 205.385C536.434 202.821 536.493 202.378 537.045 200.858C537.716 199.012 539.132 196.332 539.435 196.332C539.54 196.332 539.683 196.545 539.753 196.806ZM535.388 196.727C535.388 197.052 532.465 199.898 531.165 200.839C529.615 201.961 527.82 202.824 525.277 203.669C522.043 204.743 519.911 205.024 515.826 204.913C512.361 204.818 510.553 204.547 511.582 204.274C511.826 204.21 512.528 204.094 513.143 204.016C516.601 203.581 523.116 202.362 525.023 201.793C528.021 200.898 531.819 199.119 533.711 197.722C535.46 196.431 535.388 196.474 535.388 196.727ZM556.203 198.753C557.071 200.496 557.476 202.102 557.648 204.5C557.915 208.196 557.014 211.697 554.719 215.885C553.554 218.012 551.998 220.255 551.81 220.078C551.762 220.033 552.265 218.438 552.927 216.533C554.775 211.218 555.345 208.595 555.44 204.964C555.507 202.377 555.438 201.542 554.99 199.49C554.699 198.158 554.512 196.936 554.574 196.773C554.736 196.352 555.42 197.183 556.203 198.753ZM561.097 198.373C563.271 199.733 565.187 200.586 568.054 201.472C572.301 202.785 578.237 203.983 581.499 204.186C582.207 204.23 582.84 204.316 582.905 204.377C583.134 204.593 579.612 204.964 577.352 204.962C569.885 204.958 563.873 202.698 560.106 198.477C558.788 196.999 558.447 196.314 559.476 197.209C559.814 197.503 560.544 198.027 561.097 198.373ZM546.155 208.069C546.562 210.414 546.953 212.332 547.026 212.332C547.179 212.332 548.269 206.862 548.577 204.543C548.693 203.674 548.79 202.424 548.794 201.766C548.814 198.291 550.079 202.076 550.49 206.84C550.578 207.865 550.716 208.486 550.815 208.314C551.155 207.729 551.716 204.822 551.889 202.753L552.065 200.648L552.587 202.122C552.978 203.227 553.136 204.244 553.218 206.192C553.417 210.9 552.612 213.791 548.547 222.964L547.8 224.649L547.523 220.452C547.37 218.145 547.158 216.174 547.051 216.074C546.844 215.879 546.651 217.573 546.416 221.648C546.338 223.009 546.213 224.121 546.14 224.119C545.902 224.114 542.926 217.132 542.162 214.786C541.171 211.743 540.752 209.356 540.757 206.778C540.76 204.788 541.257 202.15 541.777 201.358C542.042 200.953 542.266 201.814 542.303 203.385C542.339 204.895 542.849 207.72 543.183 208.261C543.378 208.576 543.423 208.464 543.429 207.663C543.44 205.983 543.894 203.477 544.506 201.709L545.092 200.016L545.255 201.911C545.344 202.953 545.749 205.724 546.155 208.069ZM498.5 209.907C498.5 210.324 501.263 213.944 504.447 217.701C508.776 222.806 512.699 227.575 515.359 230.965C518.242 234.638 523.831 242.638 526.316 246.649C529.056 251.07 534.718 261.758 536.604 266.068C539.891 273.579 546.669 303 540.757 307.5C534.985 308.5 532.502 323.437 532.569 323.5C532.637 323.564 589.424 299.072 589.5 299C589.576 298.928 547.975 293.899 548.813 290.896C552.652 277.134 556.548 267.007 561.825 257.071C568.479 244.541 575.741 234.12 587.733 219.891C593.074 213.554 595.728 210.137 595.485 209.908C595.425 209.852 594.529 210.399 593.495 211.124C590.447 213.258 586.699 215.717 583.177 217.892C575.031 222.922 570.259 226.778 565.692 232.017C558.681 240.061 554.183 248.287 552.51 256.123C552.2 257.571 551.287 263.066 550.48 268.334C548.413 281.827 548.348 282.039 548.469 274.966C548.539 270.876 548.699 268.307 549.04 265.808C549.385 263.279 549.557 260.472 549.673 255.492C549.911 245.296 549.953 231.701 549.748 231.701C549.555 231.701 548.152 233.403 547.725 234.155C547.583 234.405 547.4 235.284 547.319 236.109C547.237 236.934 547.094 237.655 546.999 237.709C546.905 237.764 546.756 237.09 546.669 236.212C546.527 234.788 546.398 234.456 545.485 233.158C544.922 232.357 544.367 231.701 544.251 231.701C544.029 231.701 544.257 262.108 544.486 263.071C544.571 263.427 544.537 263.529 544.384 263.387C544.258 263.271 543.893 262.109 543.572 260.804C542.063 254.669 538.617 246.527 535.205 241.033C532.922 237.358 528.912 232.441 525.242 228.818C521.362 224.988 518.307 222.698 510.125 217.488C505.813 214.743 501.154 211.663 499.316 210.342C498.867 210.02 498.5 209.824 498.5 209.907ZM581.288 223.01C574.717 229.934 565.687 241.871 560.223 250.855C559.344 252.3 558.523 253.579 558.397 253.697C558.272 253.815 558.681 252.728 559.307 251.281C563.496 241.59 570.722 231.389 577.699 225.313C580.404 222.958 582.636 221.184 582.757 221.294C582.804 221.337 582.143 222.109 581.288 223.01ZM515.297 224.441C522.065 230.12 528.507 238.396 532.822 246.956C534.499 250.282 536.379 254.628 536.21 254.787C536.142 254.851 535.716 254.207 535.262 253.355C533.365 249.797 527.423 240.972 523.648 236.105C520.679 232.278 516.541 227.265 513.93 224.333C510.587 220.578 510.704 220.587 515.297 224.441Z" fill="#6D0E0F"/>
<path fill-rule="evenodd" clip-rule="evenodd" d="M552.799 62.4435L556.803 66.2428L559.566 65.9352C564.515 65.3838 561.582 74.6339 563.135 80.1027C563.517 81.4473 571.142 77.2733 572.197 78.8815C573.779 81.2951 574.112 82.2885 574.101 84.5704C574.09 87.1 573.892 87.5397 571.774 89.7495C569.96 91.6403 569.072 92.1668 567.675 92.1786C566.694 92.1871 565.57 92.4072 565.177 92.668C563.526 93.763 570.895 97.666 574.587 97.6524C576.085 97.6468 576.152 97.5441 576.162 95.2083C576.176 92.167 577.892 90.4803 580.985 90.4689C582.594 90.463 583.383 90.8555 584.86 92.4004C585.88 93.4673 586.712 94.856 586.71 95.4872C586.705 96.4279 586.919 96.5621 587.893 96.2324C588.546 96.0114 590.654 95.7007 592.576 95.5421C596.575 95.2118 598.318 96.0183 599.705 98.8407C600.451 100.358 600.448 100.564 599.676 101.154C598.713 101.89 599.065 102.519 600.438 102.514C601.813 102.509 604.431 105.032 604.837 106.754C605.127 107.984 604.926 108.482 603.738 109.471L602.284 110.684L604.349 111.015C607.329 111.492 608.962 112.495 609.527 114.193C609.933 115.412 610.376 115.288 608.862 116.968C607.349 118.647 613.091 122.007 614.602 124.32C615.318 125.416 611.772 126.563 614.507 128.135C623.712 133.428 627.538 136.037 630.243 138.865C634.048 142.843 635.127 145.253 635.397 150.379C635.591 154.067 635.445 154.979 634.221 157.748C633.452 159.486 632.823 160.982 632.822 161.074C632.822 161.165 633.71 161.537 634.796 161.901C640.589 163.838 638.955 172.148 641.785 178.358C651.165 179.141 644.145 190.005 644.289 197.374C644.502 208.305 648.699 198.083 639.879 223.259C637.483 230.098 637.937 232.936 640.887 229.569C642.199 228.073 642.573 227.912 643.517 228.437C646.846 230.29 646.268 237.56 642.544 240.688C641.78 241.33 641.392 241.945 641.682 242.056C643.257 242.658 646.875 245.607 648.001 247.207C649.27 249.01 649.672 251.751 648.861 253.075C648.576 253.542 647.865 253.597 646.431 253.264C644.56 252.83 642.95 253.008 642.947 253.649C642.946 253.796 643.418 254.545 643.994 255.313C644.679 256.225 645.039 257.544 645.032 259.114C645.021 261.403 644.947 261.518 643.482 261.524C641.074 261.533 640.369 262.031 639.695 264.202C638.989 266.473 637.251 268.707 636.186 268.711C635.797 268.712 634.793 267.91 633.955 266.929C632.583 265.323 632.148 265.149 629.619 265.196C622.976 265.316 616.042 271.838 613.308 280.535C612.513 283.061 612.8 283.526 614.418 282.341C615.084 281.853 616.64 281.45 617.876 281.445C622.675 281.428 625.153 286.454 622.804 291.441C621.282 294.673 618.66 296.439 614.894 296.771C613.244 296.917 611.718 297.313 611.504 297.652C611.289 297.991 611.103 299.508 611.091 301.022C611.076 302.8 610.688 304.424 609.995 305.603C607.745 309.436 601.852 310.082 598.658 306.846C597.767 305.943 593.265 311.552 592.781 311.554C591.193 311.56 592.239 316.428 586.224 324.837C582.965 329.393 578.203 326.638 576.62 328.186C572.976 331.749 567.963 334.276 562.904 335.101C560.743 335.454 558.078 336.094 556.983 336.523C555.887 336.953 554.435 337.306 553.755 337.309C553.075 337.311 551.62 338.06 550.521 338.973C548.033 341.039 546.976 341.043 543.664 338.998C542.218 338.105 540.489 337.372 539.822 337.369C539.155 337.367 537.97 337.028 537.188 336.617C536.407 336.207 533.87 335.594 531.551 335.255C523.014 334.011 520.946 334.892 512.953 323.141C507.615 315.292 499.892 305.563 498.24 305.569C497.578 305.572 496.396 306.289 495.612 307.163C493.838 309.143 490.801 309.787 487.885 308.802C486.132 308.209 485.549 307.6 484.321 305.07C483.29 302.947 482.908 301.431 483.04 299.982C483.219 297.999 483.154 297.906 481.368 297.625C475.793 296.747 473.376 295.259 472.39 292.098C470.267 285.291 475.35 279.796 480.972 282.818L481.946 282.697L482.229 281.85C481.242 276.624 476.069 277.515 471.527 275.096C469.915 274.238 468.639 266.387 466.366 266.359C463.354 266.323 462.961 266.462 461.286 268.154L459.47 269.987L458.096 268.716C457.341 268.017 456.426 266.457 456.064 265.249C455.452 263.214 455.221 263.02 452.901 262.586C449.979 262.038 449.852 261.555 451.476 257.144C452.063 255.548 452.544 254.188 452.545 254.122C452.545 254.056 451.299 254.061 449.776 254.132L447.007 254.263L446.85 252.147C446.652 249.486 448.252 246.911 451.393 244.832C453.528 243.419 454.267 242.395 453.148 242.399C451.992 242.403 449.984 237.633 449.996 234.912C450.017 230.31 452.665 228.093 454.545 231.103C455.017 231.859 455.85 232.475 456.397 232.473C458.147 232.467 457.581 229.635 453.547 218.22C448.957 205.235 447.765 200.882 446.941 194.089C445.167 179.456 451.016 166.819 460.96 163.802L463.955 162.894L462.727 160.911C460.096 156.664 459.775 150.092 461.97 145.388C464.527 139.904 466.505 138.052 476.366 131.898C481.538 128.67 486.381 125.273 487.127 124.349C488.69 122.415 488.918 119.769 487.681 117.916C485.741 115.012 488.031 111.811 492.177 111.631L494.501 111.53L493.106 110.368C490.286 108.022 491.757 104.387 496.122 102.913C497.942 102.298 498.045 102.166 497.204 101.525C496.422 100.929 496.373 100.591 496.895 99.4052C498.285 96.2481 503.472 94.5469 507.108 96.0552C508.267 96.5362 509.266 96.8371 509.326 96.7228C509.387 96.6091 509.871 95.6292 510.402 94.5461C513.192 88.8432 520.321 89.6474 520.445 95.6789L520.492 97.9671L523.223 97.7202C525.111 97.5502 526.868 96.8944 528.91 95.598C530.536 94.566 531.866 93.5548 531.867 93.35C531.868 93.1456 530.792 92.8136 529.475 92.612C525.105 91.9435 521.861 87.5296 522.637 83.3101C522.819 82.3225 523.632 80.415 524.444 79.0714C525.256 77.7273 532.083 79.51 532.469 78.1454C534.032 72.6128 532.161 65.5555 537.227 65.9873L540.167 66.2381L544.009 62.4429C546.123 60.3555 548.064 58.6465 548.324 58.6455C548.583 58.6446 550.596 60.3533 552.799 62.4435ZM536.791 104.149C532.167 105.036 527.031 106.746 520.533 109.563C516.462 111.327 516.124 111.631 502.429 125.851C487.061 141.806 486.432 142.662 480.944 155.118C468.862 182.54 466.834 216.393 475.533 245.486C477.075 250.643 477.889 252.304 481.536 257.743C483.857 261.202 486.477 265.642 487.358 267.607C493.988 282.405 493.831 282.135 498.924 287.53C505.511 294.51 510.776 298.74 516.99 302.048C528.028 307.923 535.831 309.837 548.546 309.79C555.294 309.765 557.387 309.545 561.582 308.419C574.257 305.02 583.359 299.612 594.708 288.74C600.774 282.93 609.196 271.227 611.504 265.196C613.506 259.961 610.118 266.431 614.418 259.887C619.279 252.49 620.829 244.005 623.247 231.669C627.021 212.42 626.617 194.698 621.965 175.489C619.452 165.108 616.902 158.026 611.739 147.083C607.298 137.672 607.121 137.396 603.597 134.455C601.616 132.801 596.097 127.382 591.333 122.414C581.976 112.654 579.513 110.783 572.188 107.873C559.451 102.812 549.317 101.745 536.791 104.149Z" fill="#7B0809"/>
<path fill-rule="evenodd" clip-rule="evenodd" d="M552.799 62.4435L556.803 66.2428L559.566 65.9352C564.515 65.3838 561.582 74.6339 563.135 80.1027C563.517 81.4473 571.142 77.2733 572.197 78.8815C573.779 81.2951 574.112 82.2885 574.101 84.5704C574.09 87.1 573.892 87.5397 571.774 89.7495C569.96 91.6403 569.072 92.1668 567.675 92.1786C566.694 92.1871 565.57 92.4072 565.177 92.668C563.526 93.763 570.895 97.666 574.587 97.6524C576.085 97.6468 576.152 97.5441 576.162 95.2083C576.176 92.167 577.892 90.4803 580.985 90.4689C582.594 90.463 583.383 90.8555 584.86 92.4004C585.88 93.4673 586.712 94.856 586.71 95.4872C586.705 96.4279 586.919 96.5621 587.893 96.2324C588.546 96.0114 590.654 95.7007 592.576 95.5421C596.575 95.2118 598.318 96.0183 599.705 98.8407C600.451 100.358 600.448 100.564 599.676 101.154C598.713 101.89 599.065 102.519 600.438 102.514C601.813 102.509 604.431 105.032 604.837 106.754C605.127 107.984 604.926 108.482 603.738 109.471L602.284 110.684L604.349 111.015C607.329 111.492 608.962 112.495 609.527 114.193C609.933 115.412 610.376 115.288 608.862 116.968C607.349 118.647 613.091 122.007 614.602 124.32C615.318 125.416 611.772 126.563 614.507 128.135C623.712 133.428 627.538 136.037 630.243 138.865C634.048 142.843 635.127 145.253 635.397 150.379C635.591 154.067 635.445 154.979 634.221 157.748C633.452 159.486 632.823 160.982 632.822 161.074C632.822 161.165 633.71 161.537 634.796 161.901C640.589 163.838 638.955 172.148 641.785 178.358C651.165 179.141 644.145 190.005 644.289 197.374C644.502 208.305 648.699 198.083 639.879 223.259C637.483 230.098 637.937 232.936 640.887 229.569C642.199 228.073 642.573 227.912 643.517 228.437C646.846 230.29 646.268 237.56 642.544 240.688C641.78 241.33 641.392 241.945 641.682 242.056C643.257 242.658 646.875 245.607 648.001 247.207C649.27 249.01 649.672 251.751 648.861 253.075C648.576 253.542 647.865 253.597 646.431 253.264C644.56 252.83 642.95 253.008 642.947 253.649C642.946 253.796 643.418 254.545 643.994 255.313C644.679 256.225 645.039 257.544 645.032 259.114C645.021 261.403 644.947 261.518 643.482 261.524C641.074 261.533 640.369 262.031 639.695 264.202C638.989 266.473 637.251 268.707 636.186 268.711C635.797 268.712 634.793 267.91 633.955 266.929C632.583 265.323 632.148 265.149 629.619 265.196C622.976 265.316 616.042 271.838 613.308 280.535C612.513 283.061 612.8 283.526 614.418 282.341C615.084 281.853 616.64 281.45 617.876 281.445C622.675 281.428 625.153 286.454 622.804 291.441C621.282 294.673 618.66 296.439 614.894 296.771C613.244 296.917 611.718 297.313 611.504 297.652C611.289 297.991 611.103 299.508 611.091 301.022C611.076 302.8 610.688 304.424 609.995 305.603C607.745 309.436 601.852 310.082 598.658 306.846C597.767 305.943 593.265 311.552 592.781 311.554C591.193 311.56 592.239 316.428 586.224 324.837C582.965 329.393 578.203 326.638 576.62 328.186C572.976 331.749 567.963 334.276 562.904 335.101C560.743 335.454 558.078 336.094 556.983 336.523C555.887 336.953 554.435 337.306 553.755 337.309C553.075 337.311 551.62 338.06 550.521 338.973C548.033 341.039 546.976 341.043 543.664 338.998C542.218 338.105 540.489 337.372 539.822 337.369C539.155 337.367 537.97 337.028 537.188 336.617C536.407 336.207 533.87 335.594 531.551 335.255C523.014 334.011 520.946 334.892 512.953 323.141C507.615 315.292 499.892 305.563 498.24 305.569C497.578 305.572 496.396 306.289 495.612 307.163C493.838 309.143 490.801 309.787 487.885 308.802C486.132 308.209 485.549 307.6 484.321 305.07C483.29 302.947 482.908 301.431 483.04 299.982C483.219 297.999 483.154 297.906 481.368 297.625C475.793 296.747 473.376 295.259 472.39 292.098C470.267 285.291 475.35 279.796 480.972 282.818L481.946 282.697L482.229 281.85C481.242 276.624 476.069 277.515 471.527 275.096C469.915 274.238 468.639 266.387 466.366 266.359C463.354 266.323 462.961 266.462 461.286 268.154L459.47 269.987L458.096 268.716C457.341 268.017 456.426 266.457 456.064 265.249C455.452 263.214 455.221 263.02 452.901 262.586C449.979 262.038 449.852 261.555 451.476 257.144C452.063 255.548 452.544 254.188 452.545 254.122C452.545 254.056 451.299 254.061 449.776 254.132L447.007 254.263L446.85 252.147C446.652 249.486 448.252 246.911 451.393 244.832C453.528 243.419 454.267 242.395 453.148 242.399C451.992 242.403 449.984 237.633 449.996 234.912C450.017 230.31 452.665 228.093 454.545 231.103C455.017 231.859 455.85 232.475 456.397 232.473C458.147 232.467 457.581 229.635 453.547 218.22C448.957 205.235 447.765 200.882 446.941 194.089C445.167 179.456 451.016 166.819 460.96 163.802L463.955 162.894L462.727 160.911C460.096 156.664 459.775 150.092 461.97 145.388C464.527 139.904 466.505 138.052 476.366 131.898C481.538 128.67 486.381 125.273 487.127 124.349C488.69 122.415 488.918 119.769 487.681 117.916C485.741 115.012 488.031 111.811 492.177 111.631L494.501 111.53L493.106 110.368C490.286 108.022 491.757 104.387 496.122 102.913C497.942 102.298 498.045 102.166 497.204 101.525C496.422 100.929 496.373 100.591 496.895 99.4052C498.285 96.2481 503.472 94.5469 507.108 96.0552C508.267 96.5362 509.266 96.8371 509.326 96.7228C509.387 96.6091 509.871 95.6292 510.402 94.5461C513.192 88.8432 520.321 89.6474 520.445 95.6789L520.492 97.9671L523.223 97.7202C525.111 97.5502 526.868 96.8944 528.91 95.598C530.536 94.566 531.866 93.5548 531.867 93.35C531.868 93.1456 530.792 92.8136 529.475 92.612C525.105 91.9435 521.861 87.5296 522.637 83.3101C522.819 82.3225 523.632 80.415 524.444 79.0714C525.256 77.7273 532.083 79.51 532.469 78.1454C534.032 72.6128 532.161 65.5555 537.227 65.9873L540.167 66.2381L544.009 62.4429C546.123 60.3555 548.064 58.6465 548.324 58.6455C548.583 58.6446 550.596 60.3533 552.799 62.4435ZM536.791 104.149C532.167 105.036 527.031 106.746 520.533 109.563C516.462 111.327 516.124 111.631 502.429 125.851C487.061 141.806 486.432 142.662 480.944 155.118C468.862 182.54 466.834 216.393 475.533 245.486C477.075 250.643 477.889 252.304 481.536 257.743C483.857 261.202 486.477 265.642 487.358 267.607C493.988 282.405 493.831 282.135 498.924 287.53C505.511 294.51 510.776 298.74 516.99 302.048C528.028 307.923 535.831 309.837 548.546 309.79C555.294 309.765 557.387 309.545 561.582 308.419C574.257 305.02 583.359 299.612 594.708 288.74C600.774 282.93 609.196 271.227 611.504 265.196C613.506 259.961 610.118 266.431 614.418 259.887C619.279 252.49 620.829 244.005 623.247 231.669C627.021 212.42 626.617 194.698 621.965 175.489C619.452 165.108 616.902 158.026 611.739 147.083C607.298 137.672 607.121 137.396 603.597 134.455C601.616 132.801 596.097 127.382 591.333 122.414C581.976 112.654 579.513 110.783 572.188 107.873C559.451 102.812 549.317 101.745 536.791 104.149Z" fill="#6D0E0F"/>
<defs>
<filter id="filter0_d_131_36" x="176.216" y="302.8" width="738.205" height="203.96" filterUnits="userSpaceOnUse" color-interpolation-filters="sRGB">
<feFlood flood-opacity="0" result="BackgroundImageFix"/>
<feColorMatrix in="SourceAlpha" type="matrix" values="0 0 0 0 0 0 0 0 0 0 0 0 0 0 0 0 0 0 127 0" result="hardAlpha"/>
<feOffset dy="4"/>
<feGaussianBlur stdDeviation="2"/>
<feComposite in2="hardAlpha" operator="out"/>
<feColorMatrix type="matrix" values="0 0 0 0 0.390599 0 0 0 0 0.382408 0 0 0 0 0.382408 0 0 0 0.25 0"/>
<feBlend mode="normal" in2="BackgroundImageFix" result="effect1_dropShadow_131_36"/>
<feBlend mode="normal" in="SourceGraphic" in2="effect1_dropShadow_131_36" result="shape"/>
</filter>
</defs>
</svg>
